<svg width="28" height="29" viewBox="0 0 28 29" fill="none" xmlns="http://www.w3.org/2000/svg">
<path fill-rule="evenodd" clip-rule="evenodd" d="M18.0743 14.8887C17.8544 14.2669 17.4472 13.7286 16.9087 13.3479C16.3703 12.9672 15.727 12.7627 15.0675 12.7627V11.9656H13.4732V12.7627C12.6276 12.7627 11.8165 13.0987 11.2186 13.6966C10.6206 14.2946 10.2847 15.1056 10.2847 15.9513C10.2847 16.7969 10.6206 17.608 11.2186 18.2059C11.8165 18.8039 12.6276 19.1398 13.4732 19.1398V22.3284C12.7797 22.3284 12.189 21.886 11.969 21.2658C11.9364 21.1643 11.8837 21.0705 11.8142 20.9897C11.7446 20.9089 11.6596 20.843 11.564 20.7956C11.4685 20.7483 11.3645 20.7206 11.2581 20.7142C11.1517 20.7078 11.0451 20.7228 10.9446 20.7583C10.8441 20.7938 10.7518 20.8491 10.673 20.921C10.5943 20.9928 10.5307 21.0797 10.4861 21.1765C10.4416 21.2733 10.4168 21.3781 10.4134 21.4846C10.4101 21.5911 10.4281 21.6973 10.4664 21.7967C10.6863 22.4185 11.0935 22.9568 11.632 23.3375C12.1705 23.7182 12.8137 23.9227 13.4732 23.9227V24.7198H15.0675V23.9227C15.9132 23.9227 16.7242 23.5867 17.3222 22.9888C17.9201 22.3908 18.2561 21.5798 18.2561 20.7341C18.2561 19.8885 17.9201 19.0774 17.3222 18.4795C16.7242 17.8815 15.9132 17.5456 15.0675 17.5456V14.357C15.3972 14.3569 15.7188 14.4591 15.9881 14.6494C16.2573 14.8397 16.461 15.1088 16.5709 15.4196C16.6413 15.6189 16.788 15.7822 16.9788 15.8734C17.0732 15.9185 17.1757 15.9446 17.2802 15.9502C17.3847 15.9558 17.4894 15.9407 17.5881 15.9058C17.6868 15.871 17.7777 15.817 17.8555 15.747C17.9334 15.6771 17.9967 15.5924 18.0419 15.498C18.087 15.4035 18.1131 15.3011 18.1187 15.1966C18.1243 15.092 18.1092 14.9874 18.0743 14.8887ZM13.4732 14.357C13.0504 14.357 12.6449 14.525 12.3459 14.824C12.0469 15.1229 11.8789 15.5284 11.8789 15.9513C11.8789 16.3741 12.0469 16.7796 12.3459 17.0786C12.6449 17.3776 13.0504 17.5456 13.4732 17.5456V14.357ZM15.0675 22.3284C15.4903 22.3284 15.8958 22.1604 16.1948 21.8614C16.4938 21.5625 16.6618 21.1569 16.6618 20.7341C16.6618 20.3113 16.4938 19.9058 16.1948 19.6068C15.8958 19.3078 15.4903 19.1398 15.0675 19.1398V22.3284Z" fill="white"/>
<path fill-rule="evenodd" clip-rule="evenodd" d="M5.62418 2.09785C7.58037 1.14048 10.7897 0.00854492 14.3019 0.00854492C17.7407 0.00854492 20.8655 1.09345 22.8113 2.03806L22.9213 2.09147C23.508 2.38163 23.9815 2.65585 24.3147 2.87825L21.3701 7.18281C28.1585 14.1227 33.4021 28.7032 14.3019 28.7032C-4.79842 28.7032 0.30407 14.3874 7.1515 7.18281L4.226 2.87825C4.45159 2.73078 4.73776 2.55939 5.07894 2.37765C5.24793 2.28677 5.42968 2.19351 5.62418 2.09865V2.09785ZM19.4777 7.12541L21.8348 3.67938C19.6427 3.83721 17.0344 4.35216 14.5235 5.07915C12.7299 5.59729 10.737 5.51838 8.89166 5.178C8.42663 5.09179 7.9648 4.98916 7.50703 4.8703L9.03754 7.12382C12.3178 8.29163 16.1967 8.29163 19.4777 7.12541ZM8.11684 8.48214C11.9551 9.96482 16.5681 9.96483 20.4064 8.48055C22.0085 10.1694 23.3487 12.0887 24.3825 14.1745C25.4602 16.373 26.0469 18.5708 25.9513 20.4648C25.8588 22.2926 25.1398 23.8542 23.4977 25.0148C21.7862 26.2241 18.9077 27.1089 14.3011 27.1089C9.6896 27.1089 6.79757 26.2392 5.07017 25.0435C3.41611 23.8972 2.68991 22.3572 2.58708 20.554C2.47947 18.6808 3.05341 16.4942 4.12715 14.2805C5.15148 12.1697 6.58075 10.1378 8.11684 8.48214ZM7.20013 3.13015C7.83784 3.31987 8.50425 3.48487 9.18023 3.61002C10.8941 3.92569 12.6127 3.97193 14.0794 3.54705C15.7887 3.04911 17.5271 2.6575 19.2848 2.37446C17.818 1.93284 16.1026 1.60283 14.3011 1.60283C11.5549 1.60283 8.9937 2.36888 7.20013 3.13015Z" fill="white"/>
</svg>
